<?xml version="1.0" standalone="no"?><svg xmlns="http://www.w3.org/2000/svg" viewBox="0 0 1440 320"><path fill="#212529" fill-opacity="1" d="M0,160L17.1,138.7C34.3,117,69,75,103,64C137.1,53,171,75,206,117.3C240,160,274,224,309,245.3C342.9,267,377,245,411,202.7C445.7,160,480,96,514,64C548.6,32,583,32,617,53.3C651.4,75,686,117,720,165.3C754.3,213,789,267,823,266.7C857.1,267,891,213,926,192C960,171,994,181,1029,208C1062.9,235,1097,277,1131,266.7C1165.7,256,1200,192,1234,154.7C1268.6,117,1303,107,1337,133.3C1371.4,160,1406,224,1423,256L1440,288L1440,320L1422.9,320C1405.7,320,1371,320,1337,320C1302.9,320,1269,320,1234,320C1200,320,1166,320,1131,320C1097.1,320,1063,320,1029,320C994.3,320,960,320,926,320C891.4,320,857,320,823,320C788.6,320,754,320,720,320C685.7,320,651,320,617,320C582.9,320,549,320,514,320C480,320,446,320,411,320C377.1,320,343,320,309,320C274.3,320,240,320,206,320C171.4,320,137,320,103,320C68.6,320,34,320,17,320L0,320Z"></path></svg>