<?xml version="1.0" standalone="no"?><svg xmlns="http://www.w3.org/2000/svg" viewBox="0 0 1440 320"><path fill="#212529" fill-opacity="1" d="M0,160L17.1,138.7C34.3,117,69,75,103,64C137.1,53,171,75,206,117.3C240,160,274,224,309,245.3C342.9,267,377,245,411,202.7C445.7,160,480,96,514,64C548.6,32,583,32,617,53.3C651.4,75,686,117,720,165.3C754.3,213,789,267,823,266.7C857.1,267,891,213,926,192C960,171,994,181,1029,208C1062.9,235,1097,277,1131,266.7C1165.7,256,1200,192,1234,154.7C1268.6,117,1303,107,1337,133.3C1371.4,160,1406,224,1423,256L1440,288L1440,0L1422.9,0C1405.7,0,1371,0,1337,0C1302.9,0,1269,0,1234,0C1200,0,1166,0,1131,0C1097.1,0,1063,0,1029,0C994.3,0,960,0,926,0C891.4,0,857,0,823,0C788.6,0,754,0,720,0C685.7,0,651,0,617,0C582.9,0,549,0,514,0C480,0,446,0,411,0C377.1,0,343,0,309,0C274.3,0,240,0,206,0C171.4,0,137,0,103,0C68.6,0,34,0,17,0L0,0Z"></path></svg>